<svg width="176" height="56" viewBox="0 0 176 56" fill="none" xmlns="http://www.w3.org/2000/svg">
<path fill-rule="evenodd" clip-rule="evenodd" d="M6.65077 38.6953C7.01195 36.3773 7.86155 33.829 8.71276 31.2755C9.06524 30.2183 9.41885 29.1576 9.79434 27.9039C10.3262 26.1278 10.73 24.4486 10.9469 22.965C11.1346 21.6798 11.1848 20.5552 11.0574 19.664C10.9424 18.8607 10.6665 18.2335 10.2963 17.6964C9.87221 17.0808 9.31476 16.5447 8.7216 16.0089C8.30429 15.6317 7.72496 15.1324 7.14612 14.6332C6.22927 13.8427 5.30905 13.0491 4.45526 12.2106C3.7548 11.5226 3.10984 10.8116 2.52649 10.057C1.92947 9.28441 1.40854 8.48094 0.974173 7.63004C0.493628 6.68898 0.103176 5.66247 0.0187145 4.66033C-0.0926135 3.33719 0.275316 2.11688 1.45938 1.19239C2.40149 0.456014 3.88302 0.0164296 5.81163 0.000347225C7.3403 -0.0123237 9.21824 0.231023 11.3903 0.799428C13.5163 1.35597 15.9283 2.2202 18.2492 3.19748C20.7706 4.25892 23.2205 5.46753 25.1079 6.57071C26.9833 7.66643 28.3235 8.671 29.3044 9.59647C30.3554 10.5885 31.0139 11.5069 31.4729 12.3592C31.9838 13.3087 32.2598 14.1858 32.294 15.3112C32.3238 16.2983 32.1537 17.4083 31.7792 18.9169C31.6569 19.4096 31.4576 20.139 31.2422 20.9282C30.5641 23.4132 29.7048 26.5611 29.571 29.3251C29.4901 30.9918 29.6715 32.5484 30.0802 33.9394C30.483 35.3105 31.1104 36.5177 31.9264 37.5029C33.403 39.2866 35.6332 40.4731 37.5145 41.4736L38.2869 41.8905H38.294C39.437 42.5099 40.4049 43.0866 41.2373 43.655C42.1062 44.2482 42.8515 44.8486 43.5164 45.4934C44.2232 46.1789 44.8361 46.9187 45.2505 47.6981C45.7641 48.6632 45.9854 49.6819 45.7658 50.7377C45.554 51.7554 44.9444 52.6973 44.0012 53.4845C43.2244 54.1325 42.1918 54.6957 40.9548 55.1134C39.7802 55.5099 38.4256 55.7781 36.816 55.9079C35.2769 56.0319 33.4702 56.0319 31.3218 55.8996C29.056 55.7599 26.4046 55.4709 23.8122 55.0336C21.5407 54.6506 19.3103 54.1551 17.4108 53.5489C15.2753 52.8667 13.5227 52.0386 12.0861 51.0879C10.5934 50.1001 9.44041 48.979 8.55558 47.7506C7.65015 46.4941 7.02852 45.1272 6.70483 43.5966C6.39224 42.1166 6.36956 40.4993 6.65094 38.6951L6.65077 38.6953ZM47.4362 17.5603C50.8972 17.5603 53.1828 19.1257 54.7004 21.4477V21.4548C56.0751 23.5589 56.7337 26.2506 57.0608 28.8709V28.8781C57.3242 30.9909 57.3695 32.4732 56.8492 33.6626C56.1991 35.1481 54.9995 35.8742 52.8614 36.1502C52.0824 36.2508 51.2481 36.3099 50.413 36.3099C48.0632 36.3099 45.3691 35.8966 43.1303 34.7442C40.6817 33.4838 38.7897 31.3945 38.3735 28.1066C38.316 27.6529 38.2861 27.2164 38.2861 26.7999C38.2861 24.2488 39.3103 21.9386 40.9662 20.2665C42.6221 18.5945 44.9095 17.5602 47.4362 17.5602V17.5603Z" fill="#2B2B2A"/>
<path d="M73.1313 39.1839H93.6044L94.0544 36.4904H77.4701L93.283 18.6407V16.142H73.8706V18.8357H89.0727L73.1313 36.8149V39.1839Z" fill="#2B2B2A"/>
<path fill-rule="evenodd" clip-rule="evenodd" d="M113.149 25.6819H98.7039V28.4407H113.149V25.6819ZM98.7039 18.8659H112.806V16.1395H98.7039V18.8659ZM98.7039 39.1839H113.513V36.425H98.7039V39.1839Z" fill="#2B2B2A"/>
<path fill-rule="evenodd" clip-rule="evenodd" d="M119.504 39.1839H127.135C131.571 39.1839 135.332 37.0417 135.332 32.4328C135.332 28.895 132.76 27.4019 130.703 26.8179C132.47 26.2984 134.399 24.8055 134.399 21.9167C134.399 18.3467 131.86 16.1394 126.942 16.1394H119.504V18.7685H126.267C128.935 18.7685 131.024 19.5472 131.024 22.2088C131.024 24.4485 129.449 25.6493 126.139 25.6493H119.504V28.2785H126.106C129.771 28.2785 131.924 29.6739 131.924 32.4328C131.924 35.711 129.096 36.5549 126.428 36.5549H119.504V39.1838L119.504 39.1839Z" fill="#2B2B2A"/>
<path fill-rule="evenodd" clip-rule="evenodd" d="M145.923 29.252C149.942 29.252 151.259 30.3231 151.259 33.7312V34.4778C151.259 36.4251 151.195 38.1777 151.549 39.1839H154.827C154.57 38.2104 154.57 36.2628 154.57 34.5101V33.5038C154.57 29.4468 152.513 28.3108 151.002 27.8889C153.799 27.1423 155.181 25.1626 155.181 22.3711C155.181 18.2814 152.031 16.1394 147.37 16.1394H140.035V18.8009H146.663C150.102 18.8009 151.87 20.0667 151.87 22.5658C151.87 25.3249 150.102 26.5905 146.534 26.5905H140.035V29.252H145.923Z" fill="#2B2B2A"/>
<path fill-rule="evenodd" clip-rule="evenodd" d="M169.323 32.2058L172.376 39.1844H175.912L165.691 16.1396L162.48 16.0991C162.482 16.0926 167.515 27.7151 168.262 29.4147H160.972L161.833 32.206H169.323L169.323 32.2058Z" fill="#2B2B2A"/>
<path d="M102.767 50.5697V51.063H98.9878V45.6668H102.652V46.1602H99.5526V48.0798H102.316V48.5654H99.5526V50.5697H102.767ZM110.832 45.6668V51.063H110.366L106.93 46.6844V51.063H106.365V45.6668H106.831L110.274 50.0454V45.6668H110.831H110.832ZM118.606 48.3651H119.148V50.4233C118.899 50.6444 118.603 50.814 118.262 50.9321C117.921 51.0503 117.563 51.1095 117.186 51.1095C116.652 51.1095 116.171 50.9914 115.743 50.7548C115.316 50.5185 114.98 50.191 114.735 49.772C114.491 49.3532 114.369 48.8843 114.369 48.3652C114.369 47.8461 114.491 47.3771 114.735 46.9583C114.98 46.5395 115.316 46.2118 115.743 45.9755C116.171 45.7389 116.654 45.6208 117.194 45.6208C117.601 45.6208 117.975 45.6865 118.316 45.8176C118.657 45.9485 118.944 46.1425 119.179 46.3995L118.828 46.7619C118.405 46.3405 117.868 46.1298 117.216 46.1298C116.784 46.1298 116.393 46.2261 116.045 46.419C115.696 46.6118 115.422 46.8788 115.224 47.2206C115.025 47.5623 114.926 47.9439 114.926 48.3654C114.926 48.7868 115.025 49.1669 115.224 49.5061C115.422 49.8453 115.695 50.1125 116.041 50.3078C116.387 50.5031 116.776 50.6007 117.209 50.6007C117.759 50.6007 118.224 50.462 118.606 50.1845V48.3652V48.3651ZM123.014 45.6668H123.579V51.063H123.014V45.6668ZM132.055 45.6668V51.063H131.59L128.154 46.6844V51.063H127.589V45.6668H128.055L131.498 50.0454V45.6668H132.055H132.055ZM139.845 50.5697V51.063H136.066V45.6668H139.731V46.1602H136.631V48.0798H139.395V48.5654H136.631V50.5697H139.845ZM147.223 50.5697V51.063H143.444V45.6668H147.108V46.1602H144.009V48.0798H146.772V48.5654H144.009V50.5697H147.223ZM154.47 51.063L153.249 49.3286C153.112 49.3438 152.969 49.3516 152.822 49.3516H151.386V51.063H150.821V45.6668H152.822C153.504 45.6668 154.038 45.8314 154.425 46.1602C154.812 46.4891 155.005 46.9414 155.005 47.5171C155.005 47.9385 154.9 48.2943 154.688 48.5847C154.477 48.875 154.175 49.0844 153.784 49.2131L155.089 51.0632H154.471L154.47 51.063ZM152.806 48.8661C153.335 48.8661 153.74 48.748 154.02 48.5114C154.3 48.2751 154.44 47.9435 154.44 47.5171C154.44 47.0803 154.3 46.745 154.02 46.5109C153.74 46.2771 153.335 46.1602 152.806 46.1602H151.386V48.8661H152.806ZM158.611 45.6668H159.176V51.063H158.611V45.6668ZM167.653 45.6668V51.063H167.187L163.752 46.6844V51.063H163.187V45.6668H163.652L167.095 50.0454V45.6668H167.653H167.653ZM175.427 48.3651H175.969V50.4233C175.72 50.6444 175.425 50.814 175.084 50.9321C174.743 51.0503 174.384 51.1095 174.007 51.1095C173.473 51.1095 172.992 50.9914 172.564 50.7548C172.137 50.5185 171.801 50.191 171.557 49.772C171.312 49.3532 171.19 48.8843 171.19 48.3652C171.19 47.8461 171.312 47.3771 171.557 46.9583C171.801 46.5395 172.137 46.2118 172.564 45.9755C172.992 45.7389 173.476 45.6208 174.015 45.6208C174.422 45.6208 174.796 45.6865 175.137 45.8176C175.478 45.9485 175.766 46.1425 176 46.3995L175.649 46.7619C175.226 46.3405 174.689 46.1298 174.038 46.1298C173.605 46.1298 173.215 46.2261 172.866 46.419C172.517 46.6118 172.244 46.8788 172.045 47.2206C171.847 47.5623 171.748 47.9439 171.748 48.3654C171.748 48.7868 171.847 49.1669 172.045 49.5061C172.244 49.8453 172.516 50.1125 172.862 50.3078C173.208 50.5031 173.598 50.6007 174.03 50.6007C174.58 50.6007 175.046 50.462 175.427 50.1845V48.3652V48.3651Z" fill="#2B2B2A"/>
</svg>
